<mxfile host="65bd71144e">
    <diagram id="YQdwP8wYTN14ouYVlcoB" name="第 1 页">
        <mxGraphModel dx="1565" dy="1067" grid="0" gridSize="10" guides="1" tooltips="1" connect="1" arrows="1" fold="1" page="0" pageScale="1" pageWidth="827" pageHeight="1169" background="#ffffff" math="0" shadow="0">
            <root>
                <mxCell id="0"/>
                <mxCell id="1" parent="0"/>
                <mxCell id="4" value="" style="edgeStyle=none;html=1;fontFamily=Helvetica;fontSize=12;fontColor=#333333;fillColor=#0050ef;strokeColor=#001DBC;" parent="1" source="2" target="3" edge="1">
                    <mxGeometry relative="1" as="geometry"/>
                </mxCell>
                <mxCell id="2" value="数据架构分析" style="rounded=1;whiteSpace=wrap;html=1;fillColor=#f5f5f5;fontColor=#333333;strokeColor=#666666;" parent="1" vertex="1">
                    <mxGeometry x="70" y="209" width="120" height="60" as="geometry"/>
                </mxCell>
                <mxCell id="6" value="" style="edgeStyle=none;shape=connector;rounded=1;html=1;labelBackgroundColor=default;fontFamily=Helvetica;fontSize=12;fontColor=#333333;endArrow=classic;strokeColor=#001DBC;fillColor=#0050ef;" parent="1" source="3" target="5" edge="1">
                    <mxGeometry relative="1" as="geometry"/>
                </mxCell>
                <mxCell id="3" value="数据治理" style="rounded=1;whiteSpace=wrap;html=1;fillColor=#f5f5f5;fontColor=#333333;strokeColor=#666666;" parent="1" vertex="1">
                    <mxGeometry x="270" y="209" width="120" height="60" as="geometry"/>
                </mxCell>
                <mxCell id="8" value="" style="edgeStyle=none;shape=connector;rounded=1;html=1;labelBackgroundColor=default;fontFamily=Helvetica;fontSize=12;fontColor=#333333;endArrow=classic;strokeColor=#001DBC;fillColor=#0050ef;" parent="1" source="5" target="7" edge="1">
                    <mxGeometry relative="1" as="geometry"/>
                </mxCell>
                <mxCell id="5" value="数据入湖" style="rounded=1;whiteSpace=wrap;html=1;fillColor=#f5f5f5;fontColor=#333333;strokeColor=#666666;" parent="1" vertex="1">
                    <mxGeometry x="470" y="209" width="120" height="60" as="geometry"/>
                </mxCell>
                <mxCell id="10" value="" style="edgeStyle=none;shape=connector;rounded=1;html=1;labelBackgroundColor=default;fontFamily=Helvetica;fontSize=12;fontColor=#333333;endArrow=classic;strokeColor=#001DBC;fillColor=#0050ef;" parent="1" source="7" target="9" edge="1">
                    <mxGeometry relative="1" as="geometry"/>
                </mxCell>
                <mxCell id="7" value="特征工程" style="whiteSpace=wrap;html=1;fillColor=#f5f5f5;strokeColor=#666666;fontColor=#333333;rounded=1;" parent="1" vertex="1">
                    <mxGeometry x="670" y="209" width="120" height="60" as="geometry"/>
                </mxCell>
                <mxCell id="9" value="机器学习" style="whiteSpace=wrap;html=1;fillColor=#f5f5f5;strokeColor=#666666;fontColor=#333333;rounded=1;" parent="1" vertex="1">
                    <mxGeometry x="870" y="209" width="120" height="60" as="geometry"/>
                </mxCell>
                <mxCell id="58" value="" style="shape=table;startSize=0;container=1;collapsible=0;childLayout=tableLayout;rounded=1;fontFamily=Helvetica;fontSize=12;fontColor=#333333;strokeColor=#666666;fillColor=#f5f5f5;html=1;" parent="1" vertex="1">
                    <mxGeometry x="393" y="-194" width="238.5" height="159" as="geometry"/>
                </mxCell>
                <mxCell id="59" value="" style="shape=partialRectangle;collapsible=0;dropTarget=0;pointerEvents=0;fillColor=none;top=0;left=0;bottom=0;right=0;points=[[0,0.5],[1,0.5]];portConstraint=eastwest;rounded=1;fontFamily=Helvetica;fontSize=12;fontColor=#333333;strokeColor=#666666;html=1;" parent="58" vertex="1">
                    <mxGeometry width="238.5" height="80" as="geometry"/>
                </mxCell>
                <mxCell id="60" value="人认知的世界" style="shape=partialRectangle;html=1;whiteSpace=wrap;connectable=0;overflow=hidden;fillColor=none;top=0;left=0;bottom=0;right=0;pointerEvents=1;rounded=1;fontFamily=Helvetica;fontSize=12;fontColor=#333333;strokeColor=#666666;" parent="59" vertex="1">
                    <mxGeometry width="119" height="80" as="geometry">
                        <mxRectangle width="119" height="80" as="alternateBounds"/>
                    </mxGeometry>
                </mxCell>
                <mxCell id="61" value="机器认知的世界" style="shape=partialRectangle;html=1;whiteSpace=wrap;connectable=0;overflow=hidden;fillColor=none;top=0;left=0;bottom=0;right=0;pointerEvents=1;rounded=1;fontFamily=Helvetica;fontSize=12;fontColor=#333333;strokeColor=#666666;" parent="59" vertex="1">
                    <mxGeometry x="119" width="120" height="80" as="geometry">
                        <mxRectangle width="120" height="80" as="alternateBounds"/>
                    </mxGeometry>
                </mxCell>
                <mxCell id="62" value="" style="shape=partialRectangle;collapsible=0;dropTarget=0;pointerEvents=0;fillColor=none;top=0;left=0;bottom=0;right=0;points=[[0,0.5],[1,0.5]];portConstraint=eastwest;rounded=1;fontFamily=Helvetica;fontSize=12;fontColor=#333333;strokeColor=#666666;html=1;" parent="58" vertex="1">
                    <mxGeometry y="80" width="238.5" height="79" as="geometry"/>
                </mxCell>
                <mxCell id="63" value="物理世界" style="shape=partialRectangle;html=1;whiteSpace=wrap;connectable=0;overflow=hidden;fillColor=none;top=0;left=0;bottom=0;right=0;pointerEvents=1;rounded=1;fontFamily=Helvetica;fontSize=12;fontColor=#333333;strokeColor=#666666;" parent="62" vertex="1">
                    <mxGeometry width="119" height="79" as="geometry">
                        <mxRectangle width="119" height="79" as="alternateBounds"/>
                    </mxGeometry>
                </mxCell>
                <mxCell id="64" value="数字世界" style="shape=partialRectangle;html=1;whiteSpace=wrap;connectable=0;overflow=hidden;fillColor=none;top=0;left=0;bottom=0;right=0;pointerEvents=1;rounded=1;fontFamily=Helvetica;fontSize=12;fontColor=#333333;strokeColor=#666666;" parent="62" vertex="1">
                    <mxGeometry x="119" width="120" height="79" as="geometry">
                        <mxRectangle width="120" height="79" as="alternateBounds"/>
                    </mxGeometry>
                </mxCell>
                <mxCell id="80" value="" style="group" parent="1" vertex="1" connectable="0">
                    <mxGeometry x="-230" y="1719" width="788" height="648" as="geometry"/>
                </mxCell>
                <mxCell id="31" value="数据管家" style="rounded=1;whiteSpace=wrap;html=1;fontFamily=Helvetica;fontSize=12;fontColor=#333333;strokeColor=#666666;fillColor=#f5f5f5;" parent="80" vertex="1">
                    <mxGeometry x="267" width="120" height="60" as="geometry"/>
                </mxCell>
                <mxCell id="32" value="数据所有者" style="rounded=1;whiteSpace=wrap;html=1;fontFamily=Helvetica;fontSize=12;fontColor=#333333;strokeColor=#666666;fillColor=#f5f5f5;" parent="80" vertex="1">
                    <mxGeometry x="264" y="107" width="120" height="60" as="geometry"/>
                </mxCell>
                <mxCell id="33" value="数据安全控制" style="rounded=1;whiteSpace=wrap;html=1;fontFamily=Helvetica;fontSize=12;fontColor=#333333;strokeColor=#666666;fillColor=#f5f5f5;" parent="80" vertex="1">
                    <mxGeometry x="264" y="216" width="120" height="60" as="geometry"/>
                </mxCell>
                <mxCell id="34" value="静态控制" style="whiteSpace=wrap;html=1;fillColor=#f5f5f5;strokeColor=#666666;fontColor=#333333;rounded=1;" parent="80" vertex="1">
                    <mxGeometry x="464" y="216" width="120" height="60" as="geometry"/>
                </mxCell>
                <mxCell id="35" value="" style="edgeStyle=none;shape=connector;rounded=1;html=1;labelBackgroundColor=default;fontFamily=Helvetica;fontSize=12;fontColor=#333333;endArrow=classic;strokeColor=#001DBC;fillColor=#0050ef;" parent="80" source="33" target="34" edge="1">
                    <mxGeometry relative="1" as="geometry"/>
                </mxCell>
                <mxCell id="36" value="动态控制" style="whiteSpace=wrap;html=1;fillColor=#f5f5f5;strokeColor=#666666;fontColor=#333333;rounded=1;" parent="80" vertex="1">
                    <mxGeometry x="464" y="488" width="120" height="60" as="geometry"/>
                </mxCell>
                <mxCell id="41" style="edgeStyle=orthogonalEdgeStyle;shape=connector;rounded=1;html=1;exitX=1;exitY=0.5;exitDx=0;exitDy=0;entryX=0;entryY=0.5;entryDx=0;entryDy=0;labelBackgroundColor=default;fontFamily=Helvetica;fontSize=12;fontColor=#333333;endArrow=classic;strokeColor=#001DBC;fillColor=#0050ef;" parent="80" source="33" target="36" edge="1">
                    <mxGeometry relative="1" as="geometry"/>
                </mxCell>
                <mxCell id="37" value="数据存储" style="whiteSpace=wrap;html=1;fillColor=#f5f5f5;strokeColor=#666666;fontColor=#333333;rounded=1;" parent="80" vertex="1">
                    <mxGeometry x="664" y="216" width="120" height="60" as="geometry"/>
                </mxCell>
                <mxCell id="38" value="" style="edgeStyle=none;shape=connector;rounded=1;html=1;labelBackgroundColor=default;fontFamily=Helvetica;fontSize=12;fontColor=#333333;endArrow=classic;strokeColor=#001DBC;fillColor=#0050ef;" parent="80" source="34" target="37" edge="1">
                    <mxGeometry relative="1" as="geometry"/>
                </mxCell>
                <mxCell id="39" value="连接控制" style="whiteSpace=wrap;html=1;fillColor=#f5f5f5;strokeColor=#666666;fontColor=#333333;rounded=1;" parent="80" vertex="1">
                    <mxGeometry x="664" y="304" width="120" height="60" as="geometry"/>
                </mxCell>
                <mxCell id="42" style="edgeStyle=orthogonalEdgeStyle;shape=connector;rounded=1;html=1;exitX=1;exitY=0.5;exitDx=0;exitDy=0;entryX=0;entryY=0.5;entryDx=0;entryDy=0;labelBackgroundColor=default;fontFamily=Helvetica;fontSize=12;fontColor=#333333;endArrow=classic;strokeColor=#001DBC;fillColor=#0050ef;" parent="80" source="34" target="39" edge="1">
                    <mxGeometry relative="1" as="geometry"/>
                </mxCell>
                <mxCell id="43" value="权限管理" style="whiteSpace=wrap;html=1;fillColor=#f5f5f5;strokeColor=#666666;fontColor=#333333;rounded=1;" parent="80" vertex="1">
                    <mxGeometry x="664" y="392" width="120" height="60" as="geometry"/>
                </mxCell>
                <mxCell id="44" style="edgeStyle=orthogonalEdgeStyle;shape=connector;rounded=1;html=1;exitX=1;exitY=0.5;exitDx=0;exitDy=0;entryX=0;entryY=0.5;entryDx=0;entryDy=0;labelBackgroundColor=default;fontFamily=Helvetica;fontSize=12;fontColor=#333333;endArrow=classic;strokeColor=#001DBC;fillColor=#0050ef;" parent="80" source="34" target="43" edge="1">
                    <mxGeometry relative="1" as="geometry"/>
                </mxCell>
                <mxCell id="46" value="授权管理" style="whiteSpace=wrap;html=1;fillColor=#f5f5f5;strokeColor=#666666;fontColor=#333333;rounded=1;" parent="80" vertex="1">
                    <mxGeometry x="664" y="488" width="120" height="60" as="geometry"/>
                </mxCell>
                <mxCell id="47" value="" style="edgeStyle=orthogonalEdgeStyle;shape=connector;rounded=1;html=1;labelBackgroundColor=default;fontFamily=Helvetica;fontSize=12;fontColor=#333333;endArrow=classic;strokeColor=#001DBC;fillColor=#0050ef;" parent="80" source="36" target="46" edge="1">
                    <mxGeometry relative="1" as="geometry"/>
                </mxCell>
                <mxCell id="48" value="权限管理" style="rounded=1;whiteSpace=wrap;html=1;fontFamily=Helvetica;fontSize=12;fontColor=#333333;strokeColor=#666666;fillColor=#f5f5f5;" parent="80" vertex="1">
                    <mxGeometry x="668" y="588" width="120" height="60" as="geometry"/>
                </mxCell>
                <mxCell id="49" style="edgeStyle=orthogonalEdgeStyle;shape=connector;rounded=1;html=1;exitX=1;exitY=0.5;exitDx=0;exitDy=0;entryX=0;entryY=0.5;entryDx=0;entryDy=0;labelBackgroundColor=default;fontFamily=Helvetica;fontSize=12;fontColor=#333333;endArrow=classic;strokeColor=#001DBC;fillColor=#0050ef;" parent="80" source="36" target="48" edge="1">
                    <mxGeometry relative="1" as="geometry"/>
                </mxCell>
                <mxCell id="51" style="edgeStyle=orthogonalEdgeStyle;shape=connector;rounded=1;html=1;exitX=1;exitY=0.5;exitDx=0;exitDy=0;entryX=0;entryY=0.5;entryDx=0;entryDy=0;labelBackgroundColor=default;fontFamily=Helvetica;fontSize=12;fontColor=#333333;endArrow=classic;strokeColor=#001DBC;fillColor=#0050ef;" parent="80" source="50" target="31" edge="1">
                    <mxGeometry relative="1" as="geometry"/>
                </mxCell>
                <mxCell id="52" style="edgeStyle=orthogonalEdgeStyle;shape=connector;rounded=1;html=1;exitX=1;exitY=0.5;exitDx=0;exitDy=0;entryX=0;entryY=0.5;entryDx=0;entryDy=0;labelBackgroundColor=default;fontFamily=Helvetica;fontSize=12;fontColor=#333333;endArrow=classic;strokeColor=#001DBC;fillColor=#0050ef;" parent="80" source="50" target="32" edge="1">
                    <mxGeometry relative="1" as="geometry"/>
                </mxCell>
                <mxCell id="53" style="edgeStyle=orthogonalEdgeStyle;shape=connector;rounded=1;html=1;exitX=1;exitY=0.5;exitDx=0;exitDy=0;entryX=0;entryY=0.5;entryDx=0;entryDy=0;labelBackgroundColor=default;fontFamily=Helvetica;fontSize=12;fontColor=#333333;endArrow=classic;strokeColor=#001DBC;fillColor=#0050ef;" parent="80" source="50" target="33" edge="1">
                    <mxGeometry relative="1" as="geometry"/>
                </mxCell>
                <mxCell id="50" value="行政类" style="rounded=0;whiteSpace=wrap;html=1;fontFamily=Helvetica;fontSize=12;fontColor=#333333;strokeColor=#666666;fillColor=#f5f5f5;" parent="80" vertex="1">
                    <mxGeometry y="107" width="120" height="60" as="geometry"/>
                </mxCell>
                <mxCell id="81" value="" style="group" parent="1" vertex="1" connectable="0">
                    <mxGeometry x="90" y="652" width="318" height="152" as="geometry"/>
                </mxCell>
                <mxCell id="21" value="硬感知数据" style="rounded=0;whiteSpace=wrap;html=1;fontFamily=Helvetica;fontSize=12;fontColor=#333333;strokeColor=#666666;fillColor=#f5f5f5;" parent="81" vertex="1">
                    <mxGeometry x="198" width="120" height="60" as="geometry"/>
                </mxCell>
                <mxCell id="22" value="软感知数据" style="rounded=0;whiteSpace=wrap;html=1;fontFamily=Helvetica;fontSize=12;fontColor=#333333;strokeColor=#666666;fillColor=#f5f5f5;" parent="81" vertex="1">
                    <mxGeometry x="198" y="92" width="120" height="60" as="geometry"/>
                </mxCell>
                <mxCell id="78" style="edgeStyle=orthogonalEdgeStyle;shape=connector;rounded=1;html=1;exitX=1;exitY=0.5;exitDx=0;exitDy=0;labelBackgroundColor=default;fontFamily=Helvetica;fontSize=12;fontColor=#333333;endArrow=classic;strokeColor=#001DBC;fillColor=#0050ef;" parent="81" source="77" target="21" edge="1">
                    <mxGeometry relative="1" as="geometry"/>
                </mxCell>
                <mxCell id="79" style="edgeStyle=orthogonalEdgeStyle;shape=connector;rounded=1;html=1;exitX=1;exitY=0.5;exitDx=0;exitDy=0;entryX=0;entryY=0.5;entryDx=0;entryDy=0;labelBackgroundColor=default;fontFamily=Helvetica;fontSize=12;fontColor=#333333;endArrow=classic;strokeColor=#001DBC;fillColor=#0050ef;" parent="81" source="77" target="22" edge="1">
                    <mxGeometry relative="1" as="geometry"/>
                </mxCell>
                <mxCell id="77" value="数据来源" style="rounded=1;whiteSpace=wrap;html=1;fontFamily=Helvetica;fontSize=12;fontColor=#333333;strokeColor=#666666;fillColor=#f5f5f5;" parent="81" vertex="1">
                    <mxGeometry y="47" width="120" height="60" as="geometry"/>
                </mxCell>
                <mxCell id="84" value="" style="edgeStyle=orthogonalEdgeStyle;shape=connector;rounded=1;html=1;labelBackgroundColor=default;fontFamily=Helvetica;fontSize=12;fontColor=#333333;endArrow=classic;strokeColor=#001DBC;fillColor=#0050ef;" parent="1" source="82" target="83" edge="1">
                    <mxGeometry relative="1" as="geometry"/>
                </mxCell>
                <mxCell id="82" value="数据架构师" style="rounded=1;whiteSpace=wrap;html=1;fontFamily=Helvetica;fontSize=12;fontColor=#333333;strokeColor=#666666;fillColor=#f5f5f5;" parent="1" vertex="1">
                    <mxGeometry x="70" y="85" width="120" height="60" as="geometry"/>
                </mxCell>
                <mxCell id="86" value="" style="edgeStyle=orthogonalEdgeStyle;shape=connector;rounded=1;html=1;labelBackgroundColor=default;fontFamily=Helvetica;fontSize=12;fontColor=#333333;endArrow=classic;strokeColor=#001DBC;fillColor=#0050ef;" parent="1" source="83" target="85" edge="1">
                    <mxGeometry relative="1" as="geometry"/>
                </mxCell>
                <mxCell id="83" value="数据治理工程师" style="whiteSpace=wrap;html=1;fillColor=#f5f5f5;strokeColor=#666666;fontColor=#333333;rounded=1;" parent="1" vertex="1">
                    <mxGeometry x="270" y="85" width="120" height="60" as="geometry"/>
                </mxCell>
                <mxCell id="88" value="" style="edgeStyle=orthogonalEdgeStyle;shape=connector;rounded=1;html=1;labelBackgroundColor=default;fontFamily=Helvetica;fontSize=12;fontColor=#333333;endArrow=classic;strokeColor=#001DBC;fillColor=#0050ef;" parent="1" source="85" target="87" edge="1">
                    <mxGeometry relative="1" as="geometry"/>
                </mxCell>
                <mxCell id="85" value="数据平台管理工程师" style="whiteSpace=wrap;html=1;fillColor=#f5f5f5;strokeColor=#666666;fontColor=#333333;rounded=1;" parent="1" vertex="1">
                    <mxGeometry x="470" y="85" width="120" height="60" as="geometry"/>
                </mxCell>
                <mxCell id="90" value="" style="edgeStyle=orthogonalEdgeStyle;shape=connector;rounded=1;html=1;labelBackgroundColor=default;fontFamily=Helvetica;fontSize=12;fontColor=#333333;endArrow=classic;strokeColor=#001DBC;fillColor=#0050ef;" parent="1" source="87" target="89" edge="1">
                    <mxGeometry relative="1" as="geometry"/>
                </mxCell>
                <mxCell id="87" value="数据分析工程师" style="whiteSpace=wrap;html=1;fillColor=#f5f5f5;strokeColor=#666666;fontColor=#333333;rounded=1;" parent="1" vertex="1">
                    <mxGeometry x="670" y="85" width="120" height="60" as="geometry"/>
                </mxCell>
                <mxCell id="89" value="数据科学家" style="whiteSpace=wrap;html=1;fillColor=#f5f5f5;strokeColor=#666666;fontColor=#333333;rounded=1;" parent="1" vertex="1">
                    <mxGeometry x="870" y="85" width="120" height="60" as="geometry"/>
                </mxCell>
                <mxCell id="136" value="" style="group" vertex="1" connectable="0" parent="1">
                    <mxGeometry x="-26" y="874" width="391" height="707" as="geometry"/>
                </mxCell>
                <mxCell id="118" value="数据处理流程图" style="rounded=0;whiteSpace=wrap;html=1;fontFamily=Helvetica;fontSize=12;fontColor=#333333;strokeColor=#666666;fillColor=#f5f5f5;" vertex="1" parent="136">
                    <mxGeometry y="282" width="120" height="60" as="geometry"/>
                </mxCell>
                <mxCell id="119" value="字段名处理" style="whiteSpace=wrap;html=1;fillColor=#f5f5f5;strokeColor=#666666;fontColor=#333333;rounded=0;" vertex="1" parent="136">
                    <mxGeometry x="271" width="120" height="60" as="geometry"/>
                </mxCell>
                <mxCell id="128" style="edgeStyle=orthogonalEdgeStyle;shape=connector;rounded=1;html=1;exitX=1;exitY=0.5;exitDx=0;exitDy=0;entryX=0;entryY=0.5;entryDx=0;entryDy=0;labelBackgroundColor=default;fontFamily=Helvetica;fontSize=12;fontColor=#333333;endArrow=classic;strokeColor=#001DBC;fillColor=#0050ef;" edge="1" parent="136" source="118" target="119">
                    <mxGeometry relative="1" as="geometry"/>
                </mxCell>
                <mxCell id="121" value="奇异数据处理" style="rounded=0;whiteSpace=wrap;html=1;fontFamily=Helvetica;fontSize=12;fontColor=#333333;strokeColor=#666666;fillColor=#f5f5f5;" vertex="1" parent="136">
                    <mxGeometry x="271" y="94" width="120" height="60" as="geometry"/>
                </mxCell>
                <mxCell id="129" style="edgeStyle=orthogonalEdgeStyle;shape=connector;rounded=1;html=1;exitX=1;exitY=0.5;exitDx=0;exitDy=0;entryX=0;entryY=0.5;entryDx=0;entryDy=0;labelBackgroundColor=default;fontFamily=Helvetica;fontSize=12;fontColor=#333333;endArrow=classic;strokeColor=#001DBC;fillColor=#0050ef;" edge="1" parent="136" source="118" target="121">
                    <mxGeometry relative="1" as="geometry"/>
                </mxCell>
                <mxCell id="122" value="数据类型处理" style="rounded=0;whiteSpace=wrap;html=1;fontFamily=Helvetica;fontSize=12;fontColor=#333333;strokeColor=#666666;fillColor=#f5f5f5;" vertex="1" parent="136">
                    <mxGeometry x="271" y="185" width="120" height="60" as="geometry"/>
                </mxCell>
                <mxCell id="130" style="edgeStyle=orthogonalEdgeStyle;shape=connector;rounded=1;html=1;exitX=1;exitY=0.5;exitDx=0;exitDy=0;entryX=0;entryY=0.5;entryDx=0;entryDy=0;labelBackgroundColor=default;fontFamily=Helvetica;fontSize=12;fontColor=#333333;endArrow=classic;strokeColor=#001DBC;fillColor=#0050ef;" edge="1" parent="136" source="118" target="122">
                    <mxGeometry relative="1" as="geometry"/>
                </mxCell>
                <mxCell id="123" value="缺失值处理" style="rounded=0;whiteSpace=wrap;html=1;fontFamily=Helvetica;fontSize=12;fontColor=#333333;strokeColor=#666666;fillColor=#f5f5f5;" vertex="1" parent="136">
                    <mxGeometry x="271" y="276" width="120" height="60" as="geometry"/>
                </mxCell>
                <mxCell id="131" style="edgeStyle=orthogonalEdgeStyle;shape=connector;rounded=1;html=1;exitX=1;exitY=0.5;exitDx=0;exitDy=0;entryX=0;entryY=0.5;entryDx=0;entryDy=0;labelBackgroundColor=default;fontFamily=Helvetica;fontSize=12;fontColor=#333333;endArrow=classic;strokeColor=#001DBC;fillColor=#0050ef;" edge="1" parent="136" source="118" target="123">
                    <mxGeometry relative="1" as="geometry"/>
                </mxCell>
                <mxCell id="124" value="数据标准化处理" style="rounded=0;whiteSpace=wrap;html=1;fontFamily=Helvetica;fontSize=12;fontColor=#333333;strokeColor=#666666;fillColor=#f5f5f5;" vertex="1" parent="136">
                    <mxGeometry x="271" y="367" width="120" height="60" as="geometry"/>
                </mxCell>
                <mxCell id="132" style="edgeStyle=orthogonalEdgeStyle;shape=connector;rounded=1;html=1;exitX=1;exitY=0.5;exitDx=0;exitDy=0;entryX=0;entryY=0.5;entryDx=0;entryDy=0;labelBackgroundColor=default;fontFamily=Helvetica;fontSize=12;fontColor=#333333;endArrow=classic;strokeColor=#001DBC;fillColor=#0050ef;" edge="1" parent="136" source="118" target="124">
                    <mxGeometry relative="1" as="geometry"/>
                </mxCell>
                <mxCell id="125" value="单字段校验" style="rounded=0;whiteSpace=wrap;html=1;fontFamily=Helvetica;fontSize=12;fontColor=#333333;strokeColor=#666666;fillColor=#f5f5f5;" vertex="1" parent="136">
                    <mxGeometry x="271" y="468" width="120" height="60" as="geometry"/>
                </mxCell>
                <mxCell id="133" style="edgeStyle=orthogonalEdgeStyle;shape=connector;rounded=1;html=1;exitX=1;exitY=0.5;exitDx=0;exitDy=0;entryX=0;entryY=0.5;entryDx=0;entryDy=0;labelBackgroundColor=default;fontFamily=Helvetica;fontSize=12;fontColor=#333333;endArrow=classic;strokeColor=#001DBC;fillColor=#0050ef;" edge="1" parent="136" source="118" target="125">
                    <mxGeometry relative="1" as="geometry"/>
                </mxCell>
                <mxCell id="126" value="多字段校验" style="rounded=0;whiteSpace=wrap;html=1;fontFamily=Helvetica;fontSize=12;fontColor=#333333;strokeColor=#666666;fillColor=#f5f5f5;" vertex="1" parent="136">
                    <mxGeometry x="271" y="560" width="120" height="60" as="geometry"/>
                </mxCell>
                <mxCell id="134" style="edgeStyle=orthogonalEdgeStyle;shape=connector;rounded=1;html=1;exitX=1;exitY=0.5;exitDx=0;exitDy=0;entryX=0;entryY=0.5;entryDx=0;entryDy=0;labelBackgroundColor=default;fontFamily=Helvetica;fontSize=12;fontColor=#333333;endArrow=classic;strokeColor=#001DBC;fillColor=#0050ef;" edge="1" parent="136" source="118" target="126">
                    <mxGeometry relative="1" as="geometry"/>
                </mxCell>
                <mxCell id="127" value="多表校验" style="rounded=0;whiteSpace=wrap;html=1;fontFamily=Helvetica;fontSize=12;fontColor=#333333;strokeColor=#666666;fillColor=#f5f5f5;" vertex="1" parent="136">
                    <mxGeometry x="271" y="647" width="120" height="60" as="geometry"/>
                </mxCell>
                <mxCell id="135" style="edgeStyle=orthogonalEdgeStyle;shape=connector;rounded=1;html=1;exitX=1;exitY=0.5;exitDx=0;exitDy=0;entryX=0;entryY=0.75;entryDx=0;entryDy=0;labelBackgroundColor=default;fontFamily=Helvetica;fontSize=12;fontColor=#333333;endArrow=classic;strokeColor=#001DBC;fillColor=#0050ef;" edge="1" parent="136" source="118" target="127">
                    <mxGeometry relative="1" as="geometry"/>
                </mxCell>
                <mxCell id="137" value="" style="group" vertex="1" connectable="0" parent="1">
                    <mxGeometry x="738" y="1204" width="319" height="258" as="geometry"/>
                </mxCell>
                <mxCell id="108" value="数据湖特点" style="rounded=1;whiteSpace=wrap;html=1;fontFamily=Helvetica;fontSize=12;fontColor=#333333;strokeColor=#666666;fillColor=#f5f5f5;" parent="137" vertex="1">
                    <mxGeometry y="96" width="120" height="60" as="geometry"/>
                </mxCell>
                <mxCell id="109" value="类型多样" style="whiteSpace=wrap;html=1;fillColor=#f5f5f5;strokeColor=#666666;fontColor=#333333;rounded=1;" parent="137" vertex="1">
                    <mxGeometry x="199" width="120" height="60" as="geometry"/>
                </mxCell>
                <mxCell id="113" style="edgeStyle=orthogonalEdgeStyle;shape=connector;rounded=1;html=1;exitX=1;exitY=0.5;exitDx=0;exitDy=0;entryX=0;entryY=0.5;entryDx=0;entryDy=0;labelBackgroundColor=default;fontFamily=Helvetica;fontSize=12;fontColor=#333333;endArrow=classic;strokeColor=#001DBC;fillColor=#0050ef;" parent="137" source="108" target="109" edge="1">
                    <mxGeometry relative="1" as="geometry"/>
                </mxCell>
                <mxCell id="111" value="原始记录" style="rounded=0;whiteSpace=wrap;html=1;fontFamily=Helvetica;fontSize=12;fontColor=#333333;strokeColor=#666666;fillColor=#f5f5f5;" parent="137" vertex="1">
                    <mxGeometry x="199" y="96" width="120" height="60" as="geometry"/>
                </mxCell>
                <mxCell id="114" style="edgeStyle=orthogonalEdgeStyle;shape=connector;rounded=1;html=1;exitX=1;exitY=0.5;exitDx=0;exitDy=0;entryX=0;entryY=0.5;entryDx=0;entryDy=0;labelBackgroundColor=default;fontFamily=Helvetica;fontSize=12;fontColor=#333333;endArrow=classic;strokeColor=#001DBC;fillColor=#0050ef;" parent="137" source="108" target="111" edge="1">
                    <mxGeometry relative="1" as="geometry"/>
                </mxCell>
                <mxCell id="112" value="逻辑统一" style="rounded=0;whiteSpace=wrap;html=1;fontFamily=Helvetica;fontSize=12;fontColor=#333333;strokeColor=#666666;fillColor=#f5f5f5;" parent="137" vertex="1">
                    <mxGeometry x="199" y="198" width="120" height="60" as="geometry"/>
                </mxCell>
                <mxCell id="115" style="edgeStyle=orthogonalEdgeStyle;shape=connector;rounded=1;html=1;exitX=1;exitY=0.5;exitDx=0;exitDy=0;entryX=0;entryY=0.5;entryDx=0;entryDy=0;labelBackgroundColor=default;fontFamily=Helvetica;fontSize=12;fontColor=#333333;endArrow=classic;strokeColor=#001DBC;fillColor=#0050ef;" parent="137" source="108" target="112" edge="1">
                    <mxGeometry relative="1" as="geometry"/>
                </mxCell>
                <mxCell id="138" value="" style="group" vertex="1" connectable="0" parent="1">
                    <mxGeometry x="674" y="1513" width="382" height="518" as="geometry"/>
                </mxCell>
                <mxCell id="91" value="数据入湖步骤" style="rounded=1;whiteSpace=wrap;html=1;fontFamily=Helvetica;fontSize=12;fontColor=#333333;strokeColor=#666666;fillColor=#f5f5f5;" parent="138" vertex="1">
                    <mxGeometry y="224" width="120" height="60" as="geometry"/>
                </mxCell>
                <mxCell id="92" value="明确数据owner" style="rounded=0;whiteSpace=wrap;html=1;fontFamily=Helvetica;fontSize=12;fontColor=#333333;strokeColor=#666666;fillColor=#f5f5f5;" parent="138" vertex="1">
                    <mxGeometry x="262" width="120" height="60" as="geometry"/>
                </mxCell>
                <mxCell id="98" style="edgeStyle=orthogonalEdgeStyle;shape=connector;rounded=1;html=1;exitX=1;exitY=0.5;exitDx=0;exitDy=0;entryX=0;entryY=0.5;entryDx=0;entryDy=0;labelBackgroundColor=default;fontFamily=Helvetica;fontSize=12;fontColor=#333333;endArrow=classic;strokeColor=#001DBC;fillColor=#0050ef;" parent="138" source="91" target="92" edge="1">
                    <mxGeometry relative="1" as="geometry"/>
                </mxCell>
                <mxCell id="93" value="发布数据标准" style="rounded=0;whiteSpace=wrap;html=1;fontFamily=Helvetica;fontSize=12;fontColor=#333333;strokeColor=#666666;fillColor=#f5f5f5;" parent="138" vertex="1">
                    <mxGeometry x="262" y="88" width="120" height="60" as="geometry"/>
                </mxCell>
                <mxCell id="105" style="edgeStyle=orthogonalEdgeStyle;shape=connector;rounded=1;html=1;exitX=1;exitY=0.5;exitDx=0;exitDy=0;entryX=0;entryY=0.5;entryDx=0;entryDy=0;labelBackgroundColor=default;fontFamily=Helvetica;fontSize=12;fontColor=#333333;endArrow=classic;strokeColor=#001DBC;fillColor=#0050ef;" parent="138" source="91" target="93" edge="1">
                    <mxGeometry relative="1" as="geometry"/>
                </mxCell>
                <mxCell id="94" value="认证数据源" style="rounded=0;whiteSpace=wrap;html=1;fontFamily=Helvetica;fontSize=12;fontColor=#333333;strokeColor=#666666;fillColor=#f5f5f5;" parent="138" vertex="1">
                    <mxGeometry x="262" y="176" width="120" height="60" as="geometry"/>
                </mxCell>
                <mxCell id="100" style="edgeStyle=orthogonalEdgeStyle;shape=connector;rounded=1;html=1;exitX=1;exitY=0.5;exitDx=0;exitDy=0;entryX=0;entryY=0.5;entryDx=0;entryDy=0;labelBackgroundColor=default;fontFamily=Helvetica;fontSize=12;fontColor=#333333;endArrow=classic;strokeColor=#001DBC;fillColor=#0050ef;" parent="138" source="91" target="94" edge="1">
                    <mxGeometry relative="1" as="geometry"/>
                </mxCell>
                <mxCell id="95" value="定义数据密级" style="rounded=0;whiteSpace=wrap;html=1;fontFamily=Helvetica;fontSize=12;fontColor=#333333;strokeColor=#666666;fillColor=#f5f5f5;" parent="138" vertex="1">
                    <mxGeometry x="262" y="268" width="120" height="60" as="geometry"/>
                </mxCell>
                <mxCell id="101" style="edgeStyle=orthogonalEdgeStyle;shape=connector;rounded=1;html=1;exitX=1;exitY=0.5;exitDx=0;exitDy=0;entryX=0;entryY=0.5;entryDx=0;entryDy=0;labelBackgroundColor=default;fontFamily=Helvetica;fontSize=12;fontColor=#333333;endArrow=classic;strokeColor=#001DBC;fillColor=#0050ef;" parent="138" source="91" target="95" edge="1">
                    <mxGeometry relative="1" as="geometry"/>
                </mxCell>
                <mxCell id="96" value="制定数据质量方案" style="rounded=0;whiteSpace=wrap;html=1;fontFamily=Helvetica;fontSize=12;fontColor=#333333;strokeColor=#666666;fillColor=#f5f5f5;" parent="138" vertex="1">
                    <mxGeometry x="262" y="360" width="120" height="60" as="geometry"/>
                </mxCell>
                <mxCell id="102" style="edgeStyle=orthogonalEdgeStyle;shape=connector;rounded=1;html=1;exitX=1;exitY=0.5;exitDx=0;exitDy=0;entryX=0;entryY=0.5;entryDx=0;entryDy=0;labelBackgroundColor=default;fontFamily=Helvetica;fontSize=12;fontColor=#333333;endArrow=classic;strokeColor=#001DBC;fillColor=#0050ef;" parent="138" source="91" target="96" edge="1">
                    <mxGeometry relative="1" as="geometry"/>
                </mxCell>
                <mxCell id="97" value="注册元数据" style="rounded=0;whiteSpace=wrap;html=1;fontFamily=Helvetica;fontSize=12;fontColor=#333333;strokeColor=#666666;fillColor=#f5f5f5;" parent="138" vertex="1">
                    <mxGeometry x="262" y="458" width="120" height="60" as="geometry"/>
                </mxCell>
                <mxCell id="103" style="edgeStyle=orthogonalEdgeStyle;shape=connector;rounded=1;html=1;exitX=1;exitY=0.5;exitDx=0;exitDy=0;entryX=0;entryY=0.5;entryDx=0;entryDy=0;labelBackgroundColor=default;fontFamily=Helvetica;fontSize=12;fontColor=#333333;endArrow=classic;strokeColor=#001DBC;fillColor=#0050ef;" parent="138" source="91" target="97" edge="1">
                    <mxGeometry relative="1" as="geometry"/>
                </mxCell>
                <mxCell id="139" value="" style="group" vertex="1" connectable="0" parent="1">
                    <mxGeometry x="721" y="2142" width="336" height="328" as="geometry"/>
                </mxCell>
                <mxCell id="54" value="数据管家" style="rounded=0;whiteSpace=wrap;html=1;fontFamily=Helvetica;fontSize=12;fontColor=#333333;strokeColor=#666666;fillColor=#f5f5f5;container=0;" parent="139" vertex="1">
                    <mxGeometry x="214" width="120" height="60" as="geometry"/>
                </mxCell>
                <mxCell id="66" style="edgeStyle=orthogonalEdgeStyle;shape=connector;rounded=1;html=1;exitX=1;exitY=0.5;exitDx=0;exitDy=0;entryX=0;entryY=0.5;entryDx=0;entryDy=0;labelBackgroundColor=default;fontFamily=Helvetica;fontSize=12;fontColor=#333333;endArrow=classic;strokeColor=#001DBC;fillColor=#0050ef;" parent="139" source="65" target="54" edge="1">
                    <mxGeometry relative="1" as="geometry"/>
                </mxCell>
                <mxCell id="55" value="数据分析师" style="rounded=0;whiteSpace=wrap;html=1;fontFamily=Helvetica;fontSize=12;fontColor=#333333;strokeColor=#666666;fillColor=#f5f5f5;container=0;" parent="139" vertex="1">
                    <mxGeometry x="214" y="90" width="120" height="60" as="geometry"/>
                </mxCell>
                <mxCell id="56" value="数据科学家" style="rounded=0;whiteSpace=wrap;html=1;fontFamily=Helvetica;fontSize=12;fontColor=#333333;strokeColor=#666666;fillColor=#f5f5f5;container=0;" parent="139" vertex="1">
                    <mxGeometry x="216" y="179" width="120" height="60" as="geometry"/>
                </mxCell>
                <mxCell id="57" value="IT工作人员" style="rounded=0;whiteSpace=wrap;html=1;fontFamily=Helvetica;fontSize=12;fontColor=#333333;strokeColor=#666666;fillColor=#f5f5f5;container=0;" parent="139" vertex="1">
                    <mxGeometry x="216" y="268" width="120" height="60" as="geometry"/>
                </mxCell>
                <mxCell id="67" style="edgeStyle=orthogonalEdgeStyle;shape=connector;rounded=1;html=1;exitX=1;exitY=0.5;exitDx=0;exitDy=0;labelBackgroundColor=default;fontFamily=Helvetica;fontSize=12;fontColor=#333333;endArrow=classic;strokeColor=#001DBC;fillColor=#0050ef;" parent="139" source="65" target="55" edge="1">
                    <mxGeometry relative="1" as="geometry"/>
                </mxCell>
                <mxCell id="68" style="edgeStyle=orthogonalEdgeStyle;shape=connector;rounded=1;html=1;exitX=1;exitY=0.5;exitDx=0;exitDy=0;labelBackgroundColor=default;fontFamily=Helvetica;fontSize=12;fontColor=#333333;endArrow=classic;strokeColor=#001DBC;fillColor=#0050ef;" parent="139" source="65" target="56" edge="1">
                    <mxGeometry relative="1" as="geometry"/>
                </mxCell>
                <mxCell id="69" style="edgeStyle=orthogonalEdgeStyle;shape=connector;rounded=1;html=1;exitX=1;exitY=0.5;exitDx=0;exitDy=0;entryX=0;entryY=0.5;entryDx=0;entryDy=0;labelBackgroundColor=default;fontFamily=Helvetica;fontSize=12;fontColor=#333333;endArrow=classic;strokeColor=#001DBC;fillColor=#0050ef;" parent="139" source="65" target="57" edge="1">
                    <mxGeometry relative="1" as="geometry"/>
                </mxCell>
                <mxCell id="65" value="数据使用者" style="rounded=1;whiteSpace=wrap;html=1;fontFamily=Helvetica;fontSize=12;fontColor=#333333;strokeColor=#666666;fillColor=#f5f5f5;container=0;" parent="139" vertex="1">
                    <mxGeometry y="132" width="120" height="60" as="geometry"/>
                </mxCell>
                <mxCell id="140" value="" style="group" vertex="1" connectable="0" parent="1">
                    <mxGeometry x="721" y="564" width="338" height="553" as="geometry"/>
                </mxCell>
                <mxCell id="23" value="准确性" style="rounded=1;whiteSpace=wrap;html=1;fontFamily=Helvetica;fontSize=12;fontColor=#333333;strokeColor=#666666;fillColor=#f5f5f5;" parent="140" vertex="1">
                    <mxGeometry x="218" y="493" width="120" height="60" as="geometry"/>
                </mxCell>
                <mxCell id="26" value="唯一性" style="rounded=1;whiteSpace=wrap;html=1;fontFamily=Helvetica;fontSize=12;fontColor=#333333;strokeColor=#666666;fillColor=#f5f5f5;" parent="140" vertex="1">
                    <mxGeometry x="218" y="111" width="120" height="60" as="geometry"/>
                </mxCell>
                <mxCell id="27" value="及时性" style="rounded=1;whiteSpace=wrap;html=1;fontFamily=Helvetica;fontSize=12;fontColor=#333333;strokeColor=#666666;fillColor=#f5f5f5;" parent="140" vertex="1">
                    <mxGeometry x="218" y="204" width="120" height="60" as="geometry"/>
                </mxCell>
                <mxCell id="28" value="有效性" style="rounded=1;whiteSpace=wrap;html=1;fontFamily=Helvetica;fontSize=12;fontColor=#333333;strokeColor=#666666;fillColor=#f5f5f5;" parent="140" vertex="1">
                    <mxGeometry x="218" y="297" width="120" height="60" as="geometry"/>
                </mxCell>
                <mxCell id="29" value="完整性" style="rounded=1;whiteSpace=wrap;html=1;fontFamily=Helvetica;fontSize=12;fontColor=#333333;strokeColor=#666666;fillColor=#f5f5f5;" parent="140" vertex="1">
                    <mxGeometry x="218" width="120" height="60" as="geometry"/>
                </mxCell>
                <mxCell id="30" value="一致性" style="rounded=1;whiteSpace=wrap;html=1;fontFamily=Helvetica;fontSize=12;fontColor=#333333;strokeColor=#666666;fillColor=#f5f5f5;" parent="140" vertex="1">
                    <mxGeometry x="218" y="395" width="120" height="60" as="geometry"/>
                </mxCell>
                <mxCell id="71" style="edgeStyle=orthogonalEdgeStyle;shape=connector;rounded=1;html=1;exitX=1;exitY=0.5;exitDx=0;exitDy=0;entryX=0;entryY=0.5;entryDx=0;entryDy=0;labelBackgroundColor=default;fontFamily=Helvetica;fontSize=12;fontColor=#333333;endArrow=classic;strokeColor=#001DBC;fillColor=#0050ef;" parent="140" source="70" target="29" edge="1">
                    <mxGeometry relative="1" as="geometry"/>
                </mxCell>
                <mxCell id="72" style="edgeStyle=orthogonalEdgeStyle;shape=connector;rounded=1;html=1;exitX=1;exitY=0.5;exitDx=0;exitDy=0;entryX=0;entryY=0.5;entryDx=0;entryDy=0;labelBackgroundColor=default;fontFamily=Helvetica;fontSize=12;fontColor=#333333;endArrow=classic;strokeColor=#001DBC;fillColor=#0050ef;" parent="140" source="70" target="26" edge="1">
                    <mxGeometry relative="1" as="geometry"/>
                </mxCell>
                <mxCell id="73" style="edgeStyle=orthogonalEdgeStyle;shape=connector;rounded=1;html=1;exitX=1;exitY=0.5;exitDx=0;exitDy=0;labelBackgroundColor=default;fontFamily=Helvetica;fontSize=12;fontColor=#333333;endArrow=classic;strokeColor=#001DBC;fillColor=#0050ef;" parent="140" source="70" target="27" edge="1">
                    <mxGeometry relative="1" as="geometry"/>
                </mxCell>
                <mxCell id="74" style="edgeStyle=orthogonalEdgeStyle;shape=connector;rounded=1;html=1;exitX=1;exitY=0.5;exitDx=0;exitDy=0;entryX=0;entryY=0.5;entryDx=0;entryDy=0;labelBackgroundColor=default;fontFamily=Helvetica;fontSize=12;fontColor=#333333;endArrow=classic;strokeColor=#001DBC;fillColor=#0050ef;" parent="140" source="70" target="28" edge="1">
                    <mxGeometry relative="1" as="geometry"/>
                </mxCell>
                <mxCell id="75" style="edgeStyle=orthogonalEdgeStyle;shape=connector;rounded=1;html=1;exitX=1;exitY=0.5;exitDx=0;exitDy=0;entryX=0;entryY=0.5;entryDx=0;entryDy=0;labelBackgroundColor=default;fontFamily=Helvetica;fontSize=12;fontColor=#333333;endArrow=classic;strokeColor=#001DBC;fillColor=#0050ef;" parent="140" source="70" target="30" edge="1">
                    <mxGeometry relative="1" as="geometry"/>
                </mxCell>
                <mxCell id="76" style="edgeStyle=orthogonalEdgeStyle;shape=connector;rounded=1;html=1;exitX=1;exitY=0.5;exitDx=0;exitDy=0;entryX=0;entryY=0.5;entryDx=0;entryDy=0;labelBackgroundColor=default;fontFamily=Helvetica;fontSize=12;fontColor=#333333;endArrow=classic;strokeColor=#001DBC;fillColor=#0050ef;" parent="140" source="70" target="23" edge="1">
                    <mxGeometry relative="1" as="geometry"/>
                </mxCell>
                <mxCell id="70" value="数据质量标准" style="rounded=1;whiteSpace=wrap;html=1;fontFamily=Helvetica;fontSize=12;fontColor=#333333;strokeColor=#666666;fillColor=#f5f5f5;" parent="140" vertex="1">
                    <mxGeometry y="237" width="120" height="60" as="geometry"/>
                </mxCell>
                <mxCell id="141" value="" style="group" vertex="1" connectable="0" parent="1">
                    <mxGeometry x="220" y="334" width="615" height="252" as="geometry"/>
                </mxCell>
                <mxCell id="11" value="结构数据" style="rounded=0;whiteSpace=wrap;html=1;fontFamily=Helvetica;fontSize=12;fontColor=#333333;strokeColor=#666666;fillColor=#f5f5f5;" parent="141" vertex="1">
                    <mxGeometry x="3" width="120" height="60" as="geometry"/>
                </mxCell>
                <mxCell id="12" value="非结构化数据" style="rounded=0;whiteSpace=wrap;html=1;fontFamily=Helvetica;fontSize=12;fontColor=#333333;strokeColor=#666666;fillColor=#f5f5f5;" parent="141" vertex="1">
                    <mxGeometry x="3" y="93" width="120" height="60" as="geometry"/>
                </mxCell>
                <mxCell id="13" value="内部数据" style="rounded=0;whiteSpace=wrap;html=1;fontFamily=Helvetica;fontSize=12;fontColor=#333333;strokeColor=#666666;fillColor=#f5f5f5;" parent="141" vertex="1">
                    <mxGeometry y="186" width="120" height="60" as="geometry"/>
                </mxCell>
                <mxCell id="14" value="外部数据" style="rounded=0;whiteSpace=wrap;html=1;fontFamily=Helvetica;fontSize=12;fontColor=#333333;strokeColor=#666666;fillColor=#f5f5f5;" parent="141" vertex="1">
                    <mxGeometry x="167" width="120" height="60" as="geometry"/>
                </mxCell>
                <mxCell id="15" value="元数据" style="rounded=0;whiteSpace=wrap;html=1;fontFamily=Helvetica;fontSize=12;fontColor=#333333;strokeColor=#666666;fillColor=#f5f5f5;" parent="141" vertex="1">
                    <mxGeometry x="167" y="96" width="120" height="60" as="geometry"/>
                </mxCell>
                <mxCell id="16" value="基础数据" style="rounded=0;whiteSpace=wrap;html=1;fontFamily=Helvetica;fontSize=12;fontColor=#333333;strokeColor=#666666;fillColor=#f5f5f5;" parent="141" vertex="1">
                    <mxGeometry x="167" y="192" width="120" height="60" as="geometry"/>
                </mxCell>
                <mxCell id="17" value="主数据" style="rounded=0;whiteSpace=wrap;html=1;fontFamily=Helvetica;fontSize=12;fontColor=#333333;strokeColor=#666666;fillColor=#f5f5f5;" parent="141" vertex="1">
                    <mxGeometry x="331" width="120" height="60" as="geometry"/>
                </mxCell>
                <mxCell id="18" value="事务数据" style="rounded=0;whiteSpace=wrap;html=1;fontFamily=Helvetica;fontSize=12;fontColor=#333333;strokeColor=#666666;fillColor=#f5f5f5;" parent="141" vertex="1">
                    <mxGeometry x="331" y="96" width="120" height="60" as="geometry"/>
                </mxCell>
                <mxCell id="19" value="观测数据" style="rounded=0;whiteSpace=wrap;html=1;fontFamily=Helvetica;fontSize=12;fontColor=#333333;strokeColor=#666666;fillColor=#f5f5f5;" parent="141" vertex="1">
                    <mxGeometry x="329" y="192" width="120" height="60" as="geometry"/>
                </mxCell>
                <mxCell id="20" value="关系数据" style="rounded=0;whiteSpace=wrap;html=1;fontFamily=Helvetica;fontSize=12;fontColor=#333333;strokeColor=#666666;fillColor=#f5f5f5;" parent="141" vertex="1">
                    <mxGeometry x="495" width="120" height="60" as="geometry"/>
                </mxCell>
            </root>
        </mxGraphModel>
    </diagram>
</mxfile>